<svg xmlns="http://www.w3.org/2000/svg" width="512" height="512" viewBox="0 0 24 24" fill="none">
  <defs>
    <linearGradient id="neuroGrad" x1="0%" y1="0%" x2="100%" y2="100%">
      <stop offset="0%" stop-color="#4f46e5" />
      <stop offset="100%" stop-color="#0ea5e9" />
    </linearGradient>
  </defs>
  <path d="M21 16V8a2 2 0 0 0-1-1.73l-7-4a2 2 0 0 0-2 0l-7 4A2 2 0 0 0 3 8v8a2 2 0 0 0 1 1.73l7 4a2 2 0 0 0 2 0l7-4A2 2 0 0 0 21 16z" stroke="url(#neuroGrad)" stroke-width="2.5" stroke-linecap="round" stroke-linejoin="round"></path>
  <circle cx="12" cy="12" r="3" fill="url(#neuroGrad)"></circle>
  <path d="M12 15v7M12 2v3M5 6.5l2.5 1.5M19 17.5l-2.5-1.5M5 17.5l2.5-1.5M19 6.5l-2.5 1.5" stroke="url(#neuroGrad)" stroke-width="2" stroke-linecap="round" stroke-linejoin="round"></path>
</svg>
